<svg width="327" height="347" viewBox="0 0 327 347" fill="none" xmlns="http://www.w3.org/2000/svg">
<path d="M327 148.596C327 137.149 317.621 127.783 306.158 127.783H303.683C308.307 122.841 311.15 116.219 311.15 108.964C311.15 99.6564 306.472 91.391 299.354 86.38C308.02 83.8575 314.403 75.8378 314.403 66.396C314.403 54.949 305.025 45.5832 293.562 45.5832H292.46C296.627 40.7439 299.159 34.4657 299.159 27.6213C299.159 12.4296 286.713 0 271.499 0H42.9049C27.6924 0 15.2451 12.4296 15.2451 27.6213C15.2451 39.9401 23.4297 50.4414 34.637 53.9734C32.0344 57.4465 30.4892 61.7495 30.4892 66.396C30.4892 72.2478 32.9434 77.5514 36.8702 81.3421H32.5942C17.3816 81.3421 4.93433 93.7717 4.93433 108.963C4.93433 117.345 8.72814 124.88 14.6796 129.957C7.81916 133.373 3.07523 140.456 3.07523 148.595C3.07523 159.413 11.4532 168.367 22.049 169.319C18.8465 173.826 16.953 179.318 16.953 185.234C16.953 195.312 22.4346 204.171 30.5657 208.995H27.6598C12.4464 208.995 0 221.425 0 236.617C0 249.34 8.73197 260.12 20.5057 263.29C18.4552 266.908 17.2707 271.07 17.2707 275.502C17.2707 289.25 28.5353 300.499 42.3021 300.499H44.9314C37.5735 304.865 32.6124 312.882 32.6124 322.003C32.6124 335.751 43.8761 347 57.6438 347H284.697C298.465 347 309.728 335.752 309.728 322.003C309.728 308.254 298.464 297.006 284.697 297.006H282.068C289.426 292.64 294.387 284.623 294.387 275.502C294.387 270.392 292.813 265.641 290.15 261.672C290.754 261.391 291.347 261.09 291.927 260.768C292.586 260.625 293.235 260.449 293.869 260.243H292.837C300.84 255.389 306.215 246.6 306.215 236.617C306.215 226.538 300.733 217.679 292.603 212.855H295.509C310.722 212.855 323.169 200.425 323.169 185.234C323.169 178.195 320.494 171.753 316.113 166.861C322.585 163.321 327 156.449 327 148.596Z" fill="#C7EAFB"/>
<path d="M189.876 307.034C192.687 289.145 181.07 272.265 163.929 269.332C146.787 266.399 130.614 278.523 127.803 296.412C124.993 314.301 136.61 331.18 153.751 334.114C170.892 337.047 187.066 324.923 189.876 307.034Z" stroke="#342C77" stroke-width="1.1261" stroke-miterlimit="10" stroke-dasharray="2.55 3.19"/>
<path d="M105.217 164.049C118.915 164.049 130.019 152.46 130.019 138.165C130.019 123.869 118.915 112.28 105.217 112.28C91.5194 112.28 80.4152 123.869 80.4152 138.165C80.4152 152.46 91.5194 164.049 105.217 164.049Z" stroke="#342C77" stroke-width="1.1261" stroke-miterlimit="10" stroke-dasharray="2.5 3.12"/>
<path d="M192.365 61.6987C191.651 56.463 189.678 51.6498 186.773 47.6074L191.72 42.4447L185.779 36.2444L180.832 41.4071C176.959 38.3754 172.347 36.3163 167.33 35.5703V28.2695H158.928V35.5703C153.912 36.3163 149.3 38.3754 145.427 41.4071L140.48 36.2444L134.539 42.4447L139.486 47.6074C136.581 51.6498 134.608 56.463 133.893 61.6987H126.898V70.4674H133.893C134.608 75.7031 136.581 80.5164 139.486 84.5587L134.539 89.7215L140.48 95.9218L145.427 90.759C149.3 93.7908 153.912 95.8499 158.928 96.5958V103.897H167.33V96.5958C172.347 95.8499 176.959 93.7908 180.832 90.759L185.779 95.9218L191.72 89.7215L186.773 84.5587C189.678 80.5164 191.651 75.7031 192.365 70.4674H199.361V61.6987H192.365ZM163.129 87.7882C151.643 87.7882 142.332 78.0708 142.332 66.0836C142.332 54.0964 151.643 44.379 163.129 44.379C174.614 44.379 183.925 54.0964 183.925 66.0836C183.925 78.0708 174.615 87.7882 163.129 87.7882Z" fill="white" stroke="#342C77" stroke-width="1.372" stroke-miterlimit="10"/>
<path d="M53.7725 66.0835H101.015" stroke="#342C77" stroke-width="1.6413" stroke-miterlimit="10" stroke-dasharray="3.69 4.61"/>
<path d="M8.05737 233.665H55.2986" stroke="#342C77" stroke-width="1.6413" stroke-miterlimit="10" stroke-dasharray="3.69 4.61"/>
<path d="M215.63 17.0581H262.872" stroke="#342C77" stroke-width="1.6413" stroke-miterlimit="10" stroke-dasharray="3.69 4.61"/>
<path d="M50.7192 17.0581H97.9614" stroke="#342C77" stroke-width="1.6413" stroke-miterlimit="10"/>
<path d="M28.3469 163.197H51.9679" stroke="#342C77" stroke-width="1.6413" stroke-miterlimit="10"/>
<path d="M16.5367 115.108H59.8358" stroke="#342C77" stroke-width="1.6413" stroke-miterlimit="10"/>
<path d="M77.429 338.67H124.671" stroke="#342C77" stroke-width="1.6413" stroke-miterlimit="10"/>
<path d="M282.634 317.009L169.661 311.296C165.563 311.296 162.21 307.797 162.21 303.52L153.718 69.8921C153.718 65.6151 165.563 58.8066 169.661 58.8066H287.48C291.578 58.8066 294.932 62.3057 294.932 66.5828V303.52C294.931 307.797 290.727 313.934 282.634 317.009Z" fill="white" stroke="#342C77" stroke-width="3" stroke-miterlimit="10"/>
<path d="M277.928 318.573H160.109C156.011 318.573 152.658 315.074 152.658 310.796V73.8596C152.658 69.5826 156.011 66.0835 160.109 66.0835H277.928C282.026 66.0835 285.379 69.5826 285.379 73.8596V310.797C285.38 315.074 282.027 318.573 277.928 318.573Z" fill="white" stroke="#342C77" stroke-width="3" stroke-miterlimit="10"/>
<path d="M276.478 86.2183H161.56V287.936H276.478V86.2183Z" fill="#8BD7F8"/>
<path d="M276.478 86.2183H161.56V91.5428H276.478V86.2183Z" fill="#5FCCF5"/>
<path d="M237.633 78.7526H197.978C197.088 78.7526 196.359 77.9926 196.359 77.0629C196.359 76.1342 197.087 75.3733 197.978 75.3733H237.633C238.523 75.3733 239.252 76.1332 239.252 77.0629C239.251 77.9916 238.523 78.7526 237.633 78.7526Z" fill="#342C77"/>
<path d="M222.808 308.018C225.573 305.132 225.573 300.452 222.808 297.566C220.042 294.68 215.559 294.68 212.793 297.566C210.028 300.452 210.028 305.132 212.793 308.018C215.559 310.904 220.042 310.904 222.808 308.018Z" fill="#C4C6C8"/>
<path d="M59.1355 58.2744L69.2242 32.6543L43.9067 40.9627L52.8932 45.4274L41.374 56.465L44.12 59.5866L55.6392 48.548L59.1355 58.2744Z" fill="white" stroke="#342C77" stroke-width="1.2302" stroke-miterlimit="10"/>
<path d="M176.384 303.185C170.578 303.185 165.672 307.199 164.071 312.713H156.128V316.613H152.704V312.713H147.541V316.613H144.118V312.713H137.841V307.084H134.417V312.713H131.564V305.567H128.141V312.713H123.005V320.455H164.056C165.639 325.998 170.558 330.04 176.384 330.04C183.489 330.04 189.249 324.028 189.249 316.613C189.249 309.196 183.489 303.185 176.384 303.185ZM182.919 319.738C181.264 319.738 179.923 318.338 179.923 316.612C179.923 314.885 181.264 313.485 182.919 313.485C184.573 313.485 185.915 314.885 185.915 316.612C185.915 318.338 184.573 319.738 182.919 319.738Z" fill="white" stroke="#342C77" stroke-width="1.4909" stroke-miterlimit="10"/>
<path d="M39.7904 329.102C39.3751 330.065 39.6277 330.916 41.2859 331.43C43.4847 332.113 46.0528 331.851 48.3243 331.85C52.3497 331.848 56.3855 331.664 60.4004 331.365C62.1954 331.24 64.2133 330.723 64.6793 328.685C65.0706 326.973 64.5817 325.01 64.2047 323.339C64.1339 323.021 57.9787 322.213 57.328 322.088C51.4732 320.963 45.4261 322.756 41.2046 327.186C40.5893 327.832 40.0545 328.49 39.7904 329.102Z" fill="#130040"/>
<path d="M120.713 330.675C121.128 331.637 120.875 332.488 119.217 333.003C117.019 333.686 114.45 333.424 112.179 333.423C108.154 333.421 104.118 333.236 100.102 332.938C98.3069 332.813 96.2889 332.296 95.823 330.257C95.4316 328.546 95.9206 326.583 96.2976 324.912C96.3684 324.593 102.524 323.785 103.174 323.661C109.029 322.534 115.076 324.329 119.298 328.759C119.914 329.405 120.449 330.062 120.713 330.675Z" fill="#130040"/>
<path d="M95.6947 168.077C99.1259 168.026 102.615 168.255 106.138 168.824C109.66 169.395 113.223 170.327 116.707 171.771C120.199 173.184 123.613 175.132 126.768 177.595C129.914 180.062 132.779 183.083 135.085 186.526C136.258 188.233 137.295 190.041 138.196 191.909C139.118 193.771 139.876 195.705 140.509 197.667C141.792 201.594 142.534 205.639 142.861 209.663C143.182 213.672 143.066 217.509 142.605 221.331C142.137 225.131 141.325 228.835 140.123 232.349L121.488 226.826C122.007 224.004 122.533 221.254 122.918 218.528C123.115 217.166 123.275 215.811 123.399 214.462C123.539 213.13 123.604 211.737 123.64 210.487C123.768 205.369 122.79 200.455 120.63 196.23C120.098 195.166 119.47 194.156 118.77 193.19C118.097 192.201 117.306 191.29 116.474 190.399C114.779 188.647 112.796 187.071 110.537 185.769C108.285 184.466 105.814 183.348 103.184 182.459C100.548 181.584 97.7624 180.937 94.8976 180.435L95.6947 168.077Z" fill="#2AC5F4" stroke="#342C77" stroke-width="1.4388" stroke-miterlimit="10"/>
<path d="M108.48 160.028C108.48 160.028 118.644 144.489 116.195 128.807C113.745 113.125 99.4789 85.9746 99.4789 85.9746L61.5313 88.9125C54.4068 89.4637 49.4065 96.4779 50.947 103.759L62.8546 160.028L86.2643 180.927L108.48 160.028Z" fill="#FCC8AA" stroke="#342C77" stroke-width="1.6646" stroke-miterlimit="10"/>
<path d="M67.1192 150.384C78.1035 163.101 94.8967 163.617 109.481 158.351C108.873 159.426 108.48 160.028 108.48 160.028L86.2643 180.925L62.8547 160.028L56.4659 129.836C59.0704 137.163 62.0892 144.56 67.1192 150.384Z" fill="#FCC8AA"/>
<path d="M84.5965 256.742C102.933 256.742 117.798 247.572 117.798 236.259C117.798 224.946 102.933 215.776 84.5965 215.776C66.2597 215.776 51.3948 224.946 51.3948 236.259C51.3948 247.572 66.2597 256.742 84.5965 256.742Z" fill="#342C77"/>
<path d="M112.883 237.014C114.024 230.621 116.678 216.968 113.687 205.524C108.041 183.927 107.134 169.895 107.068 169.572C106.606 168.021 108.736 161.599 108.701 161.321C108.701 161.321 96.863 169.045 84.6128 168.558C72.3635 168.071 63.0756 161.321 63.0756 161.321C63.2163 161.766 64.8305 166.933 65.4141 168.618C65.4141 168.618 61.2357 180.394 55.5033 202.416C52.5247 213.862 55.1522 230.621 56.2927 237.014H112.883Z" fill="white" stroke="#342C77" stroke-width="1.6373" stroke-miterlimit="10"/>
<path d="M80.7989 176.822L77.8969 182.566L84.3171 188.904L90.8111 182.342L88.1148 176.841L84.4884 175.155L80.7989 176.822Z" fill="#F37783" stroke="#342C77" stroke-width="1.7995" stroke-miterlimit="10"/>
<path d="M88.7367 177.63L90.5786 171.192C91.0417 169.573 89.8705 167.95 88.2525 167.967L80.8725 168.041C79.2756 168.057 78.137 169.664 78.5915 171.262L80.398 177.617C80.7003 178.68 81.6342 179.409 82.6962 179.412L86.4279 179.422C87.4918 179.424 88.4314 178.695 88.7367 177.63Z" fill="#F37783" stroke="#342C77" stroke-width="1.7995" stroke-miterlimit="10"/>
<path d="M116.556 203.275C115.439 194.01 113.905 184.73 112.398 175.469C111.788 171.715 111.146 168.879 106.662 168.071C100.305 171.83 90.7891 182.422 85.2759 186.89C84.7984 187.278 83.9143 187.249 83.4321 186.89C77.6892 182.617 71.9062 171.564 65.3051 168.071C65.2142 168.206 62.1657 173.23 60.9056 175.485C57.9748 180.731 55.5617 185.562 54.0394 191.157C50.7604 203.209 49.3921 215.549 49.9844 227.838C50.105 230.335 50.2169 233.623 52.3085 235.727C54.2566 237.687 58.1231 238.595 61.1936 239.338C70.7035 241.64 80.9558 241.175 90.8092 241.155C95.7713 241.145 100.768 241.249 105.66 240.631C108.762 240.238 111.774 239.49 114.565 238.407C118.046 237.056 118.299 235.638 118.407 232.773C118.769 223.247 117.982 215.09 116.556 203.275Z" fill="#2AC5F4" stroke="#342C77" stroke-width="1.5198" stroke-miterlimit="10"/>
<path d="M116.556 203.275C115.439 194.01 113.905 184.73 112.398 175.47C112.129 173.819 111.337 168.569 109.057 170.074C107.319 171.22 108.538 179.152 108.563 180.98C108.823 200.149 107.444 227.042 86.0977 233.953C78.5628 236.393 70.0336 236.017 62.314 234.815C58.746 234.26 54.0145 232.038 50.6321 232.366C50.769 233.647 51.412 234.825 52.3095 235.729C54.2575 237.689 58.1241 238.597 61.1945 239.34C70.7044 241.642 80.9567 241.178 90.8101 241.157C95.7722 241.147 100.769 241.251 105.661 240.633C108.763 240.242 111.775 239.492 114.566 238.409C118.047 237.058 118.299 235.64 118.408 232.775C118.769 223.247 117.982 215.09 116.556 203.275Z" fill="#70C0E1"/>
<path d="M81.9863 250.28L65.2132 325.069L48.3425 321.597L60.0262 245.762L81.9863 250.28Z" fill="#342C77"/>
<path d="M108.709 245.111L112.295 323.731L95.1561 325.2L86.4002 247.023L108.709 245.111Z" fill="#342C77"/>
<path d="M53.5399 119.345C53.9293 119.298 53.9341 119.266 54.3149 119.308L58.2695 137.971C57.9078 138.103 56.0238 138.241 55.6344 138.288C51.8607 138.743 48.3319 134.87 47.754 129.639C47.1751 124.409 49.7662 119.799 53.5399 119.345Z" fill="#FCC8AA" stroke="#342C77" stroke-width="1.6626" stroke-miterlimit="10"/>
<path d="M55.3569 134.623C54.9177 134.698 54.5312 134.701 54.3121 134.727C52.186 134.983 50.1977 132.802 49.8724 129.854C49.593 127.33 50.3307 124.389 53.16 124.047" fill="#F8A79B"/>
<path d="M55.3569 134.623C54.9177 134.698 54.5312 134.701 54.3121 134.727C52.186 134.983 50.1977 132.802 49.8724 129.854C49.593 127.33 50.3307 124.389 53.16 124.047" stroke="#342C77" stroke-width="0.9367" stroke-miterlimit="10" stroke-linecap="round" stroke-linejoin="round"/>
<path d="M49.3691 88.0746C50.1336 87.0021 51.1316 86.1703 52.252 85.5701C52.231 85.4493 52.1937 85.3344 52.1784 85.2106C52.0387 84.0652 52.2674 82.766 53.1428 82.061C53.6002 81.6925 54.1743 81.5318 54.7331 81.379C63.6258 78.9434 74.7144 73.0636 83.9506 74.7063C85.4414 74.972 86.9627 75.3934 88.442 75.0678C89.8963 74.7463 91.1105 73.7447 92.408 72.9877C96.5156 70.5911 101.87 70.7279 105.86 73.3322C109.851 75.9366 112.313 80.9006 112.046 85.8038C111.588 94.239 103.737 100.468 95.799 102.13C94.4451 102.414 85.2146 103.102 87.1034 99.232C87.2201 98.9923 87.4028 98.7926 87.511 98.5489C88.7204 95.8287 83.7449 97.5373 82.9115 97.796C79.9195 98.7267 76.2501 99.4417 73.1337 98.8146C70.0547 98.1954 66.0035 96.383 64.6993 100.686C64.3204 101.936 64.3683 103.275 64.3377 104.586C64.2028 110.451 62.3752 116.258 59.1823 121.084C57.6007 123.475 56.2554 125.429 53.7638 123.143C52.0358 121.559 50.7278 118.977 49.682 116.876C45.4634 108.396 43.5229 96.2781 49.3691 88.0746Z" fill="#833C1F" stroke="#342C77" stroke-width="1.7995" stroke-miterlimit="10"/>
<path d="M59.5833 92.5413C60.0301 93.8025 59.2274 95.0018 57.6467 97.5253C55.0326 101.697 53.894 105.977 54.0079 110.973C54.0576 113.151 54.6356 122.923 56.398 123.899C45.7036 117.976 43.545 101.398 49.3682 88.0745C49.8486 86.9751 50.9489 86.342 51.9402 85.7588C51.6244 85.9455 56.8362 89.4816 57.2046 89.7981C58.5509 90.9565 59.3068 91.7604 59.5833 92.5413Z" fill="#FCC8AA"/>
<path d="M52.4406 85.9746C55.178 89.3079 58.6628 91.9692 62.536 93.6828" stroke="#342C77" stroke-width="1.7995" stroke-miterlimit="10" stroke-linecap="round" stroke-linejoin="round"/>
<path d="M100.376 118.445C100.862 120.874 102.218 122.633 103.405 122.375C104.591 122.116 105.16 119.938 104.674 117.509C104.188 115.081 102.833 113.321 101.646 113.58C100.459 113.838 99.8903 116.016 100.376 118.445Z" fill="#342C77"/>
<path d="M77.362 123.458C77.848 125.887 79.2039 127.646 80.3903 127.388C81.5768 127.129 82.1451 124.951 81.66 122.522C81.174 120.094 79.8181 118.334 78.6317 118.593C77.4443 118.851 76.8759 121.029 77.362 123.458Z" fill="#342C77"/>
<path d="M105.945 137.973C105.963 138.095 105.991 138.213 106.006 138.337C107.045 146.685 101.973 154.254 94.6795 155.241C87.3856 156.229 80.6314 150.262 79.5933 141.914C79.5779 141.79 79.577 141.669 79.5636 141.546L105.945 137.973Z" fill="#342C77"/>
<path d="M100.594 151.619C98.8733 153.021 96.8238 153.965 94.559 154.272C90.5355 154.817 86.6824 153.238 83.856 150.317C89.019 146.849 96.1454 146.953 100.594 151.619Z" fill="#F16480" stroke="#342C77" stroke-width="0.8997" stroke-miterlimit="10"/>
<path d="M97.107 125.515C98.6274 126.195 100.223 126.717 101.595 127.676C102.333 128.194 103.019 128.871 103.3 129.751C103.663 130.895 103.253 132.204 102.458 133.078C101.662 133.951 100.541 134.435 99.4072 134.659C96.3463 135.265 93.03 134.02 90.9824 131.571C88.9338 129.121 88.198 125.569 89.019 122.433C89.1855 121.795 89.4266 121.151 89.8906 120.702C91.9411 118.714 92.4922 121.451 93.3304 122.687C94.0557 123.757 95.1532 124.544 96.266 125.115C96.5425 125.256 96.8238 125.388 97.107 125.515Z" fill="#F37D89" stroke="#342C77" stroke-width="0.927" stroke-miterlimit="10" stroke-linecap="round" stroke-linejoin="round"/>
<path d="M89.018 122.433C89.1845 121.795 89.4266 121.151 89.8897 120.702C90.0418 120.555 90.1825 120.441 90.3183 120.344C88.9501 124.8 90.7451 130.013 94.8106 132.376C97.0927 133.702 100.17 134.094 102.494 133.033C102.481 133.048 102.47 133.064 102.458 133.079C101.662 133.952 100.541 134.437 99.4062 134.66C96.3454 135.266 93.029 134.021 90.9814 131.572C88.9338 129.121 88.198 125.569 89.018 122.433Z" fill="#FCC8AA"/>
<path d="M99.8655 130.642C100.375 130.94 101.018 130.75 101.303 130.22C101.588 129.688 101.406 129.017 100.898 128.72C100.389 128.422 99.7459 128.612 99.4608 129.143C99.1756 129.674 99.3574 130.345 99.8655 130.642Z" fill="white"/>
<path d="M81.018 111.802L71.1579 115.628" stroke="#342C77" stroke-width="3.5989" stroke-miterlimit="10" stroke-linecap="round" stroke-linejoin="round"/>
<path d="M104.684 107.544L94.1982 108.428" stroke="#342C77" stroke-width="3.5989" stroke-miterlimit="10" stroke-linecap="round" stroke-linejoin="round"/>
<path d="M102.787 120.484C102.929 121.196 103.334 121.709 103.692 121.632C104.05 121.554 104.224 120.914 104.081 120.202C103.939 119.49 103.534 118.976 103.176 119.054C102.818 119.132 102.644 119.772 102.787 120.484Z" fill="white"/>
<path d="M80.1176 124.963C80.2602 125.675 80.6649 126.188 81.0228 126.11C81.3806 126.032 81.5548 125.392 81.4122 124.681C81.2696 123.969 80.8649 123.456 80.507 123.534C80.1492 123.611 79.975 124.251 80.1176 124.963Z" fill="white"/>
<path d="M204.128 197.207H77.8969V257.729H204.128V197.207Z" fill="#94D0A7" stroke="#342C77" stroke-width="3.3827" stroke-miterlimit="10"/>
<path d="M182.66 205.313H96.0133C94.7407 210.011 91.2244 213.672 86.7867 214.894V239.084C91.521 240.388 95.2125 244.47 96.242 249.621H182.659C184.079 243.584 189.163 239.109 195.236 239.109V215.826C189.165 215.826 184.08 211.351 182.66 205.313Z" fill="#76C37C" stroke="#342C77" stroke-width="2.6828" stroke-miterlimit="10"/>
<path d="M157.607 232.029C160.018 222.47 154.547 212.681 145.388 210.166C136.229 207.65 126.85 213.36 124.439 222.919C122.029 232.478 127.5 242.267 136.659 244.782C145.818 247.298 155.197 241.588 157.607 232.029Z" fill="#94D0A7" stroke="#342C77" stroke-width="3.1814" stroke-miterlimit="10"/>
<path d="M111.99 225.864C111.99 230.03 108.754 233.408 104.762 233.408C100.77 233.408 97.5327 230.031 97.5327 225.864C97.5327 221.698 100.769 218.319 104.762 218.319C108.754 218.319 111.99 221.697 111.99 225.864Z" fill="#CFEDFC"/>
<path d="M184.06 225.864C184.06 230.03 180.824 233.408 176.831 233.408C172.839 233.408 169.603 230.031 169.603 225.864C169.603 221.698 172.839 218.319 176.831 218.319C180.824 218.319 184.06 221.697 184.06 225.864Z" fill="#CFEDFC"/>
<path d="M143.458 222.822V221.312C143.458 221.175 143.36 219.631 142.439 218.808V226.286C146.679 228.275 146.744 231.67 146.744 231.807V233.317C146.744 233.454 146.712 234.757 146.021 236.232C145.265 237.742 143.984 238.771 142.438 239.182V240.76H139.152V239.182C137.672 238.771 136.293 237.639 135.603 236.232C134.913 234.826 134.847 233.454 134.847 233.317V231.807H138.1V233.317C138.1 233.454 138.297 234.998 139.152 235.821V228.343C134.912 226.354 134.847 222.958 134.847 222.822V221.312C134.847 221.175 134.879 219.837 135.57 218.397C136.293 216.922 137.641 215.825 139.153 215.481V213.869H142.439V215.481C143.984 215.859 145.298 216.887 146.022 218.397C146.712 219.872 146.745 221.175 146.745 221.312V222.822H143.458ZM139.154 224.674V218.808C138.267 219.632 138.102 221.175 138.102 221.312V222.787C138.102 223.062 138.267 223.919 139.154 224.674ZM142.44 229.956V235.822C143.361 234.999 143.459 233.455 143.459 233.318V231.843C143.458 231.738 143.196 230.745 142.44 229.956Z" fill="#342C77"/>
<path d="M148.263 197.207H121.031L77.8969 242.225V257.729H90.2714C109.602 237.554 128.933 217.381 148.263 197.207Z" fill="#CFEDFC"/>
<path d="M182.571 197.207H162.784L155.968 204.322C138.91 222.125 121.852 239.927 104.794 257.73H124.581L182.571 197.207Z" fill="#CFEDFC"/>
<path d="M199.06 202.814L201.607 200.345L202.225 203.915L204.591 206.573L201.17 207.218L198.624 209.686L198.006 206.117L195.641 203.459L199.06 202.814Z" fill="white"/>
<path d="M193.118 206.805L196.018 206.991L194.303 209.438L194.125 212.463L191.781 210.675L188.882 210.488L190.596 208.041L190.774 205.016L193.118 206.805Z" fill="white"/>
<path d="M202.88 212.66L205.778 212.847L204.064 215.293L203.886 218.319L201.541 216.529L198.642 216.344L200.357 213.896L200.535 210.871L202.88 212.66Z" fill="white"/>
<path d="M106.115 206.926C107.799 206.483 109.488 206.064 111.184 205.671C111.39 205.623 111.619 205.579 111.804 205.686C112.006 205.803 112.086 206.061 112.13 206.298C112.413 207.814 111.89 209.467 110.797 210.507C109.335 211.9 106.72 211.92 105.557 213.408C105.786 213.875 106.137 213.918 106.629 213.876C108.024 213.757 109.426 213.697 110.822 213.588C113.66 213.365 116.495 213.099 119.332 212.854C120.275 212.773 121.109 213.511 121.187 214.494C121.265 215.477 120.558 216.348 119.616 216.43C119.616 216.43 108.771 218.093 109.207 218.055L123.515 216.822C124.549 216.733 125.464 217.542 125.55 218.621L125.567 218.831C125.652 219.91 124.877 220.866 123.843 220.955C123.843 220.955 110.266 222.654 110.495 222.645L124.251 222.045C125.35 222.001 126.281 222.903 126.324 224.049L126.342 224.544C126.401 226.158 124.1 226.347 123.024 226.474C119.07 226.94 114.986 226.803 111.009 226.94C113.819 227.165 116.63 227.39 119.438 227.644C119.849 227.681 120.374 227.664 120.742 227.886C121.356 228.253 121.162 228.682 121.118 229.323C121.085 230.382 120.004 230.502 118.989 230.467C118.989 230.467 109.528 230.811 109.355 230.748C106.848 230.836 104.288 231.295 101.82 230.773C99.2283 230.225 96.7644 229.009 94.0806 228.985C93.0788 228.976 92.0837 229.138 91.0933 229.299C89.3625 229.579 87.6325 229.861 85.9016 230.142C85.5907 230.193 85.2376 230.232 84.9946 230.022C84.8683 229.913 84.7946 229.751 84.7295 229.594C83.5469 226.741 83.257 223.093 83.035 220.022C83.0216 219.834 83.0149 219.624 83.1326 219.483C83.2455 219.346 83.4349 219.318 83.6072 219.298C86.6154 218.96 89.6246 218.628 92.6338 218.286C94.6824 218.054 96.153 215.927 97.3538 214.402C98.4685 212.987 99.8607 211.955 101.059 210.653C101.833 209.811 102.367 208.637 103.344 207.992C104.155 207.456 105.101 207.195 106.032 206.949C106.059 206.94 106.087 206.933 106.115 206.926Z" fill="#FCC8AA" stroke="#342C77" stroke-width="1.3158" stroke-miterlimit="10"/>
<path d="M50.7872 176.51C49.3701 178.851 48.3081 181.43 47.6393 184.098C44.6329 196.099 48.5597 209.627 56.6114 218.572C57.9892 220.103 59.4885 221.515 61.0711 222.797C62.6432 224.1 64.3148 225.251 66.038 226.278C69.4816 228.349 73.1415 229.891 76.8616 231.004C80.5683 232.106 84.1985 232.729 87.8803 232.995C91.5431 233.249 95.1828 233.134 98.7183 232.582L97.1252 212.434C94.3714 212.421 91.6856 212.428 89.0467 212.296C87.7282 212.235 86.4231 212.136 85.1324 212.003C83.8521 211.889 82.5308 211.687 81.3481 211.482C76.5114 210.624 72.0813 208.675 68.5267 205.646C67.6292 204.894 66.8015 204.057 66.0284 203.154C65.2276 202.273 64.5253 201.288 63.8478 200.264C60.8262 195.692 59.2034 190.35 59.7899 184.781C60.2971 179.967 62.1303 176.616 63.9627 172.217C64.4305 171.094 65.3768 169.286 65.3041 168.071C61.0577 167.388 54.0643 171.098 50.7872 176.51Z" fill="#2AC5F4" stroke="#342C77" stroke-width="1.4388" stroke-miterlimit="10"/>
<path d="M152.947 258.081C153.011 257.646 153.023 257.154 152.746 256.822C152.463 256.483 151.96 256.433 151.548 256.567C151.136 256.7 150.786 256.981 150.423 257.225C149.806 257.641 149.131 257.964 148.426 258.179C148.121 258.273 147.784 258.344 147.493 258.209C146.662 257.846 145.657 250.289 145.657 250.289C145.44 249.109 144.337 248.328 143.206 248.554C142.075 248.781 141.242 251.204 141.46 252.385L141.151 249.941C140.933 248.761 139.831 247.98 138.699 248.205C137.568 248.432 136.873 250.753 137.09 251.934L136.698 250.226C136.481 249.045 135.378 248.264 134.247 248.49C133.116 248.717 132.605 249.445 132.434 251.033L132.476 252.341C132.476 252.341 131.14 250.292 130.009 250.519C128.878 250.746 128.13 251.896 128.346 253.078C128.346 253.078 128.895 257.324 128.995 257.989C129.308 260.049 130.39 261.947 132.037 263.143C134.832 265.176 138.483 265.581 141.796 265.332C144.554 265.126 148.343 264.548 150.514 262.624C151.81 261.477 152.69 259.832 152.947 258.081Z" fill="#FCC8AA" stroke="#342C77" stroke-width="1.3158" stroke-miterlimit="10"/>
<path d="M132.461 252.255L133.018 255.527" stroke="#342C77" stroke-width="1.3158" stroke-miterlimit="10" stroke-linecap="round" stroke-linejoin="round"/>
<path d="M136.941 251.186L137.497 254.458" stroke="#342C77" stroke-width="1.3158" stroke-miterlimit="10" stroke-linecap="round" stroke-linejoin="round"/>
<path d="M141.459 251.252L141.675 254.592" stroke="#342C77" stroke-width="1.3158" stroke-miterlimit="10" stroke-linecap="round" stroke-linejoin="round"/>
<path d="M219.66 193.372V261.564" stroke="#342C77" stroke-width="3" stroke-miterlimit="10" stroke-linecap="round" stroke-linejoin="round"/>
<path d="M234.842 182.935C254.175 173.112 262.218 148.792 252.806 128.615C243.394 108.438 220.092 100.044 200.759 109.866C181.426 119.689 173.383 144.009 182.795 164.186C192.206 184.363 215.509 192.757 234.842 182.935Z" fill="#3EC7F4"/>
<path d="M186.119 113.646C185.76 113.409 185.292 113.684 185.297 114.127C185.726 152.17 203.7 182.751 217.369 182.751C231.032 182.751 249.85 152.2 250.313 114.183C250.319 113.73 249.831 113.458 249.473 113.714C247.501 115.122 242.288 118.348 235.919 118.348C225.434 118.348 219.388 114.27 218.077 113.282C217.909 113.155 217.69 113.14 217.508 113.244C215.912 114.159 208.165 118.348 200.13 118.348C193.885 118.348 188.193 115.014 186.119 113.646Z" fill="#FFF682" stroke="#342C77" stroke-width="2.4553" stroke-miterlimit="10"/>
<path d="M192.203 121.381C191.913 121.198 191.534 121.411 191.539 121.752C191.885 151.123 206.408 174.733 217.452 174.733C228.492 174.733 243.697 151.146 244.071 121.795C244.076 121.446 243.682 121.236 243.392 121.434C241.799 122.521 237.586 125.012 232.44 125.012C223.968 125.012 219.083 121.863 218.025 121.101C217.889 121.003 217.711 120.992 217.564 121.071C216.275 121.777 210.016 125.012 203.523 125.012C198.478 125.013 193.879 122.438 192.203 121.381Z" fill="#FFD340" stroke="#342C77" stroke-width="1.9392" stroke-miterlimit="10"/>
<path d="M239.713 160.879C241.38 157.482 242.924 153.768 244.286 149.781C233.474 138.494 222.659 127.21 211.872 115.896C208.637 117.151 204.425 118.348 200.13 118.348C199.691 118.348 199.256 118.329 198.824 118.298C212.487 132.455 226.088 146.68 239.713 160.879Z" fill="#CFEDFC"/>
<path d="M187.65 114.59C187.025 114.229 186.509 113.902 186.119 113.646C185.76 113.409 185.292 113.684 185.297 114.127C185.364 120.043 185.855 125.778 186.689 131.245L191.747 136.525L229.592 176.021C232.128 173.373 234.62 170.002 236.949 166.04L187.65 114.59Z" fill="#CFEDFC"/>
<path d="M203.568 148.392L213.854 158.904L235.752 133.919" stroke="#342C77" stroke-width="7.3792" stroke-miterlimit="10"/>
</svg>
