<svg width="25" height="24" viewBox="0 0 25 24" fill="none" xmlns="http://www.w3.org/2000/svg">
<g clip-path="url(#clip0_25_657)">
<path d="M23.75 12.0698C23.75 5.71857 18.6013 0.569849 12.25 0.569849C5.89872 0.569849 0.75 5.71857 0.75 12.0698C0.75 17.8098 4.95538 22.5674 10.4531 23.4301V15.3941H7.5332V12.0698H10.4531V9.53626C10.4531 6.65407 12.17 5.06204 14.7968 5.06204C16.055 5.06204 17.3711 5.28665 17.3711 5.28665V8.11672H15.921C14.4924 8.11672 14.0469 9.00319 14.0469 9.91263V12.0698H17.2363L16.7265 15.3941H14.0469V23.4301C19.5446 22.5674 23.75 17.8098 23.75 12.0698Z" fill="#1877F2"/>
</g>
<defs>
<clipPath id="clip0_25_657">
<rect width="24" height="24" fill="white" transform="translate(0.25)"/>
</clipPath>
</defs>
</svg>
