<svg width="25" height="24" viewBox="0 0 25 24" fill="none" xmlns="http://www.w3.org/2000/svg">
<path fill-rule="evenodd" clip-rule="evenodd" d="M23.79 12.2614C23.79 11.4459 23.7168 10.6618 23.5809 9.90909H12.75V14.3575H18.9391C18.6725 15.795 17.8623 17.013 16.6443 17.8284V20.7139H20.3609C22.5355 18.7118 23.79 15.7636 23.79 12.2614Z" fill="#4285F4"/>
<path fill-rule="evenodd" clip-rule="evenodd" d="M12.7499 23.4998C15.8549 23.4998 18.4581 22.4701 20.3608 20.7137L16.6442 17.8282C15.6144 18.5182 14.2972 18.926 12.7499 18.926C9.75467 18.926 7.21945 16.903 6.31513 14.1848H2.47308V17.1644C4.36536 20.9228 8.25445 23.4998 12.7499 23.4998Z" fill="#34A853"/>
<path fill-rule="evenodd" clip-rule="evenodd" d="M6.31523 14.1851C6.08523 13.4951 5.95455 12.758 5.95455 12.0001C5.95455 11.2421 6.08523 10.5051 6.31523 9.81506V6.83551H2.47318C1.69432 8.38801 1.25 10.1444 1.25 12.0001C1.25 13.8557 1.69432 15.6121 2.47318 17.1646L6.31523 14.1851Z" fill="#FBBC05"/>
<path fill-rule="evenodd" clip-rule="evenodd" d="M12.7499 5.07386C14.4383 5.07386 15.9542 5.65409 17.146 6.79364L20.4444 3.49523C18.4529 1.63955 15.8497 0.5 12.7499 0.5C8.25445 0.5 4.36536 3.07705 2.47308 6.83545L6.31513 9.815C7.21945 7.09682 9.75468 5.07386 12.7499 5.07386Z" fill="#EA4335"/>
</svg>
