<svg width="138" height="138" viewBox="0 0 138 138" fill="none" xmlns="http://www.w3.org/2000/svg">
<g clip-path="url(#clip0_8_908)">
<rect width="138" height="138" rx="69" fill="#E9661D"/>
<rect x="24" y="36" width="90" height="206" rx="6" fill="white"/>
<circle cx="69" cy="61" r="13" fill="#E9661D"/>
<path fill-rule="evenodd" clip-rule="evenodd" d="M66.75 58C66.75 57.4033 66.9871 56.831 67.4091 56.409C67.831 55.9871 68.4033 55.75 69 55.75C69.5968 55.75 70.1691 55.9871 70.591 56.409C71.013 56.831 71.25 57.4033 71.25 58C71.25 58.5967 71.013 59.169 70.591 59.591C70.1691 60.0129 69.5968 60.25 69 60.25C68.4033 60.25 67.831 60.0129 67.4091 59.591C66.9871 59.169 66.75 58.5967 66.75 58ZM64.8755 65.0525C64.8924 63.9697 65.3344 62.937 66.106 62.1773C66.8777 61.4176 67.9172 60.9917 69 60.9917C70.0829 60.9917 71.1224 61.4176 71.8941 62.1773C72.6657 62.937 73.1077 63.9697 73.1245 65.0525C73.1258 65.1254 73.1059 65.1971 73.0671 65.2588C73.0283 65.3205 72.9723 65.3696 72.906 65.4C71.6806 65.9619 70.3481 66.2518 69 66.25C67.607 66.25 66.2835 65.946 65.094 65.4C65.0278 65.3696 64.9718 65.3205 64.933 65.2588C64.8942 65.1971 64.8742 65.1254 64.8755 65.0525Z" fill="white"/>
<circle cx="79.5" cy="50.5" r="6.5" fill="#1CBE8E" stroke="white"/>
<g clip-path="url(#clip1_8_908)">
<path d="M82.293 48.7227L78.7383 52.2773L76.9609 50.5" stroke="white" stroke-width="1.5" stroke-linecap="round" stroke-linejoin="round"/>
</g>
<rect x="32" y="82" width="26" height="4" rx="2" fill="#CFD0D8"/>
<rect x="32" y="90" width="74" height="10" rx="5" fill="#ECEDF1"/>
<rect x="32" y="108" width="26" height="4" rx="2" fill="#CFD0D8"/>
<rect x="32" y="116" width="74" height="10" rx="5" fill="#ECEDF1"/>
<rect x="32" y="134" width="74" height="10" rx="5" fill="#E9661D"/>
<circle cx="69" cy="69" r="69" fill="url(#paint0_linear_8_908)"/>
</g>
<defs>
<linearGradient id="paint0_linear_8_908" x1="69" y1="0" x2="69" y2="200" gradientUnits="userSpaceOnUse">
<stop offset="0.400916" stop-color="#754BF3" stop-opacity="0"/>
<stop offset="0.895833" stop-color="#754BF3"/>
<stop offset="1" stop-color="#754BF3"/>
</linearGradient>
<clipPath id="clip0_8_908">
<rect width="138" height="138" rx="69" fill="white"/>
</clipPath>
<clipPath id="clip1_8_908">
<rect width="8.125" height="8.125" fill="white" transform="translate(75.4375 46.4375)"/>
</clipPath>
</defs>
</svg>
