<svg width="23" height="23" viewBox="0 0 23 23" fill="none" xmlns="http://www.w3.org/2000/svg">
<path fill-rule="evenodd" clip-rule="evenodd" d="M21.5427 20.7084H20.6293V13.4014H18.8025V20.7084H15.149V13.4014H13.3223V20.7084H9.66879V13.4014H7.84204V20.7084H4.18854V13.4014H2.36179V20.7084H1.44841C0.944227 20.7084 0.535034 21.1167 0.535034 21.6217C0.535034 22.1268 0.944227 22.5351 1.44841 22.5351H21.5427C22.0469 22.5351 22.4561 22.1268 22.4561 21.6217C22.4561 21.1167 22.0469 20.7084 21.5427 20.7084Z" fill="#BBAFFE"/>
<path fill-rule="evenodd" clip-rule="evenodd" d="M21.9802 7.11906L11.9331 1.63881C11.66 1.49084 11.3311 1.49084 11.058 1.63881L1.0109 7.11906C0.717709 7.2789 0.535034 7.58671 0.535034 7.92101V10.6611C0.535034 11.1662 0.944227 11.5745 1.44841 11.5745H21.5427C22.0469 11.5745 22.4561 11.1662 22.4561 10.6611V7.92101C22.4561 7.58671 22.2734 7.2789 21.9802 7.11906ZM11.4955 8.83438C10.4863 8.83438 9.66879 8.01691 9.66879 7.00763C9.66879 5.99835 10.4863 5.18088 11.4955 5.18088C12.5048 5.18088 13.3223 5.99835 13.3223 7.00763C13.3223 8.01691 12.5048 8.83438 11.4955 8.83438Z" fill="#BBAFFE"/>
</svg>
