<svg width="20" height="20" viewBox="0 0 20 20" fill="none" xmlns="http://www.w3.org/2000/svg">
<path fill-rule="evenodd" clip-rule="evenodd" d="M18.1739 0.739258H11.4782C10.95 0.739258 10.5217 1.16751 10.5217 1.69578V8.39143C10.5217 8.9197 10.95 9.34795 11.4782 9.34795H18.1739C18.7022 9.34795 19.1304 8.9197 19.1304 8.39143V1.69578C19.1304 1.16751 18.7022 0.739258 18.1739 0.739258ZM17.2174 2.65229V7.4349H12.4347V2.65229H17.2174ZM7.65219 0.739263H0.956535C0.428263 0.739263 1.32685e-05 1.16751 1.32685e-05 1.69578V8.39144C1.32685e-05 8.91971 0.428263 9.34796 0.956535 9.34796H7.65219C8.18046 9.34796 8.60871 8.91971 8.60871 8.39144V1.69578C8.60871 1.16751 8.18046 0.739263 7.65219 0.739263ZM6.69566 2.6523V7.43491H1.91305V2.6523H6.69566ZM11.4782 11.261H18.1739C18.7022 11.261 19.1304 11.6893 19.1304 12.2175V18.9132C19.1304 19.4415 18.7022 19.8697 18.1739 19.8697H11.4782C10.95 19.8697 10.5217 19.4415 10.5217 18.9132V12.2175C10.5217 11.6893 10.95 11.261 11.4782 11.261ZM17.2174 17.9566V13.174H12.4347V17.9566H17.2174ZM7.65217 11.261H0.956522C0.428249 11.261 0 11.6893 0 12.2175V18.9132C0 19.4415 0.428249 19.8697 0.956522 19.8697H7.65217C8.18045 19.8697 8.6087 19.4415 8.6087 18.9132V12.2175C8.6087 11.6893 8.18045 11.261 7.65217 11.261ZM6.69565 13.174V17.9566H1.91304V13.174H6.69565Z" fill="#979F99"/>
</svg>
