<svg width="18" height="20" viewBox="0 0 18 20" fill="none" xmlns="http://www.w3.org/2000/svg">
<path fill-rule="evenodd" clip-rule="evenodd" d="M8.55309 0.92243L0.727 7.00939C0.515186 7.17413 0.391296 7.42744 0.391296 7.69578V17.261C0.391296 18.7017 1.55925 19.8697 2.99999 19.8697H15.1739C16.6146 19.8697 17.7826 18.7017 17.7826 17.261V7.69578C17.7826 7.42744 17.6587 7.17413 17.4469 7.00939L9.62081 0.92243C9.3068 0.6782 8.8671 0.6782 8.55309 0.92243ZM9.08696 2.70969L16.0435 8.121V17.261C16.0435 17.7412 15.6542 18.1306 15.1739 18.1306H12.5652V10.3045L12.5594 10.2031C12.5091 9.77059 12.1416 9.43491 11.6957 9.43491H6.47826L6.37685 9.44075C5.94438 9.49099 5.6087 9.85853 5.6087 10.3045V18.1306H3L2.89859 18.1247C2.46612 18.0745 2.13043 17.7069 2.13043 17.261V8.12013L9.08696 2.70969ZM7.34783 18.1306H10.8261V11.174H7.34783V18.1306Z" fill="#979F99"/>
</svg>
