<svg width="20" height="20" viewBox="0 0 20 20" fill="none" xmlns="http://www.w3.org/2000/svg">
<path fill-rule="evenodd" clip-rule="evenodd" d="M9.56522 0C4.28249 0 0 4.28249 0 9.56522C0 14.8479 4.28249 19.1304 9.56522 19.1304C14.8479 19.1304 19.1304 14.8479 19.1304 9.56522C19.1304 4.28249 14.8479 0 9.56522 0ZM9.56519 1.73913C13.8874 1.73913 17.3913 5.24298 17.3913 9.56521C17.3913 13.8874 13.8874 17.3913 9.56519 17.3913C5.24296 17.3913 1.7391 13.8874 1.7391 9.56521C1.7391 5.24298 5.24296 1.73913 9.56519 1.73913ZM10.4289 4.24641C10.3787 3.81394 10.0111 3.47826 9.56519 3.47826C9.08494 3.47826 8.69563 3.86757 8.69563 4.34782V9.56521L8.70241 9.67378C8.73832 9.95959 8.91445 10.212 9.17631 10.343L12.6546 12.0821L12.7479 12.1222C13.1572 12.2707 13.6218 12.0921 13.8212 11.6932L13.8613 11.5999C14.0098 11.1906 13.8312 10.726 13.4323 10.5266L10.4348 9.02782V4.34782L10.4289 4.24641Z" fill="#979F99"/>
</svg>
