<svg width="19" height="20" viewBox="0 0 19 20" fill="none" xmlns="http://www.w3.org/2000/svg">
<path fill-rule="evenodd" clip-rule="evenodd" d="M7.91668 10C5.73089 10 3.95834 7.30083 3.95834 5V4.16667C3.95834 1.86583 5.73089 0 7.91668 0C10.1025 0 11.875 1.86583 11.875 4.16667V5C11.875 7.30083 10.1025 10 7.91668 10Z" fill="#75759E"/>
<path fill-rule="evenodd" clip-rule="evenodd" d="M10.2917 18.3309C10.2917 17.6642 10.5387 17.0376 10.986 16.5642L14.2302 13.1501C14.0022 12.9392 13.7386 12.7676 13.4378 12.6609C12.1355 12.1984 10.1523 11.6667 7.91667 11.6667C5.68101 11.6667 3.69788 12.1984 2.39559 12.6609C1.43292 13.0034 0.791672 13.9576 0.791672 15.0267V18.3334H10.2917V18.3309Z" fill="#75759E"/>
<path fill-rule="evenodd" clip-rule="evenodd" d="M16.6907 12.9166L12.107 17.7416C11.9581 17.8983 11.875 18.11 11.875 18.3308V19.9975H13.4583C13.6681 19.9975 13.8692 19.91 14.018 19.7533L18.6018 14.9283C19.1298 14.3725 19.1298 13.4725 18.6018 12.9166C18.0737 12.3608 17.2187 12.3608 16.6907 12.9166Z" fill="#75759E"/>
</svg>
