<svg width="21" height="21" viewBox="0 0 21 21" fill="none" xmlns="http://www.w3.org/2000/svg">
<path fill-rule="evenodd" clip-rule="evenodd" d="M20.1338 5.40033L17.6963 1.1612C17.5495 0.906118 17.2852 0.750057 17 0.75H4.00001C3.71483 0.750057 3.45056 0.906118 3.30369 1.1612L0.866193 5.40033C0.790216 5.53217 0.750052 5.68311 0.750005 5.83696C0.74686 7.70566 2.19536 9.22359 3.98619 9.22826H3.99269C4.79523 9.2304 5.56977 8.92059 6.16532 8.35924C7.39542 9.51935 9.26747 9.51935 10.4976 8.35924C11.7283 9.52191 13.6032 9.52191 14.8339 8.35924C15.7867 9.25615 17.1566 9.48262 18.3284 8.93691C19.5002 8.39121 20.2535 7.17594 20.25 5.83696C20.25 5.68311 20.2098 5.53217 20.1338 5.40033Z" fill="white"/>
<path fill-rule="evenodd" clip-rule="evenodd" d="M17.013 10.9238C16.2577 10.9244 15.5126 10.7421 14.8363 10.3914L14.8241 10.3973C13.671 10.9972 12.3361 11.0918 11.1159 10.6601C10.9045 10.586 10.6982 10.497 10.4984 10.3939L10.4894 10.3981C9.33671 10.9985 8.00177 11.0928 6.782 10.6601C6.57093 10.586 6.3649 10.497 6.16531 10.3939C5.4902 10.7437 4.74645 10.9251 3.99269 10.9238C3.72276 10.9211 3.45348 10.8956 3.1875 10.8475V19.4021C3.1875 19.8703 3.55127 20.2499 4 20.2499H8.875V15.1629H12.125V20.2499H17C17.4487 20.2499 17.8125 19.8703 17.8125 19.4021V10.8441C17.5485 10.8934 17.2811 10.9201 17.013 10.9238Z" fill="white"/>
</svg>
