<svg width="14" height="20" viewBox="0 0 14 20" fill="none" xmlns="http://www.w3.org/2000/svg">
<path fill-rule="evenodd" clip-rule="evenodd" d="M7.14322 1.06886C6.99898 0.862011 6.76765 0.739258 6.52174 0.739258C6.27583 0.739258 6.0445 0.862011 5.90026 1.06886C5.29642 1.93531 0 9.63411 0 13.0943C0 16.8303 2.92558 19.8697 6.52174 19.8697C10.1179 19.8697 13.0435 16.8303 13.0435 13.0943C13.0435 9.63411 7.74706 1.93531 7.14322 1.06886ZM6.52174 18.2755C3.77187 18.2755 1.53453 15.9511 1.53453 13.0943C1.53453 10.884 4.71215 5.64302 6.52174 2.91932C8.33133 5.64302 11.509 10.884 11.509 13.0943C11.509 15.9511 9.27162 18.2755 6.52174 18.2755ZM4.61957 12.3839C4.61957 13.76 5.53363 14.8791 6.65761 14.8791C7.03261 14.8791 7.33696 15.2518 7.33696 15.7109C7.33696 16.17 7.03261 16.5427 6.65761 16.5427C4.78465 16.5427 3.26087 14.677 3.26087 12.3839C3.26087 11.9247 3.56522 11.5521 3.94022 11.5521C4.31522 11.5521 4.61957 11.9247 4.61957 12.3839Z" fill="#979F99"/>
</svg>
